<svg width="1200" height="630" viewBox="0 0 1200 630" fill="none" xmlns="http://www.w3.org/2000/svg">
  <rect width="1200" height="630" fill="url(#gradient)" />
  
  <rect x="150" y="150" width="900" height="330" rx="20" fill="white" fill-opacity="0.9" />
  
  <text x="600" y="250" font-family="Arial, sans-serif" font-size="60" font-weight="bold" text-anchor="middle" fill="url(#text-gradient)">MediPredict</text>
  
  <text x="600" y="320" font-family="Arial, sans-serif" font-size="30" text-anchor="middle" fill="#555">Your Personal Medication Safety Assistant</text>
  
  <g transform="translate(300, 380)">
    <circle cx="0" cy="0" r="40" fill="#4F46E5" />
    <path d="M-15,-15 L15,15 M-15,15 L15,-15" stroke="white" stroke-width="6" />
  </g>
  
  <g transform="translate(450, 380)">
    <circle cx="0" cy="0" r="40" fill="#8B5CF6" />
    <path d="M0,-20 L0,20 M-20,0 L20,0" stroke="white" stroke-width="6" />
  </g>
  
  <g transform="translate(600, 380)">
    <circle cx="0" cy="0" r="40" fill="#EC4899" />
    <path d="M-15,0 A15,15 0 0,1 15,0 A15,15 0 0,1 -15,0" stroke="white" stroke-width="6" fill="none" />
  </g>
  
  <g transform="translate(750, 380)">
    <circle cx="0" cy="0" r="40" fill="#14B8A6" />
    <path d="M-15,-15 L15,15 M-15,15 L15,-15" stroke="white" stroke-width="6" />
  </g>
  
  <g transform="translate(900, 380)">
    <circle cx="0" cy="0" r="40" fill="#4299E1" />
    <path d="M0,-20 L0,20 M-20,0 L20,0" stroke="white" stroke-width="6" />
  </g>
  
  <defs>
    <linearGradient id="gradient" x1="0" y1="0" x2="1200" y2="630" gradientUnits="userSpaceOnUse">
      <stop offset="0%" stop-color="#3B82F6" />
      <stop offset="50%" stop-color="#6366F1" />
      <stop offset="100%" stop-color="#8B5CF6" />
    </linearGradient>
    
    <linearGradient id="text-gradient" x1="150" y1="250" x2="950" y2="250" gradientUnits="userSpaceOnUse">
      <stop offset="0%" stop-color="#3B82F6" />
      <stop offset="100%" stop-color="#8B5CF6" />
    </linearGradient>
  </defs>
</svg> 